<mxfile host="65bd71144e">
    <diagram id="uF34GFSeDM6knXIIaCfM" name="ページ1">
        <mxGraphModel dx="1190" dy="546" grid="1" gridSize="10" guides="1" tooltips="1" connect="1" arrows="1" fold="1" page="1" pageScale="1" pageWidth="827" pageHeight="1169" math="0" shadow="0">
            <root>
                <mxCell id="0"/>
                <mxCell id="1" parent="0"/>
                <mxCell id="60" value="" style="rounded=0;whiteSpace=wrap;html=1;fillColor=#F9F9F9;fontColor=#000000;strokeColor=none;strokeWidth=3;glass=0;" parent="1" vertex="1">
                    <mxGeometry x="39" y="80" width="750" height="360" as="geometry"/>
                </mxCell>
                <mxCell id="6" value="" style="shape=actor;whiteSpace=wrap;html=1;glass=0;fontSize=16;" parent="1" vertex="1">
                    <mxGeometry x="59" y="100" width="40" height="60" as="geometry"/>
                </mxCell>
                <mxCell id="7" value="nakko1130.jp" style="text;html=1;align=center;verticalAlign=middle;resizable=0;points=[];autosize=1;strokeColor=none;fillColor=none;glass=0;fontSize=16;fontStyle=1;fontColor=#000000;" parent="1" vertex="1">
                    <mxGeometry x="454" y="100" width="120" height="30" as="geometry"/>
                </mxCell>
                <mxCell id="9" value="" style="aspect=fixed;perimeter=ellipsePerimeter;html=1;align=center;shadow=0;dashed=0;spacingTop=3;image;image=img/lib/active_directory/generic_server.svg;glass=0;fontSize=16;" parent="1" vertex="1">
                    <mxGeometry x="649" y="90" width="39.2" height="70" as="geometry"/>
                </mxCell>
                <mxCell id="11" value="ROOT DNS Server" style="text;html=1;align=center;verticalAlign=middle;resizable=0;points=[];autosize=1;strokeColor=none;fillColor=none;glass=0;fontSize=16;fontColor=#000000;" parent="1" vertex="1">
                    <mxGeometry x="584" y="160" width="160" height="30" as="geometry"/>
                </mxCell>
                <mxCell id="13" value="Client" style="text;html=1;align=center;verticalAlign=middle;resizable=0;points=[];autosize=1;strokeColor=none;fillColor=none;glass=0;fontSize=16;fontColor=#000000;" parent="1" vertex="1">
                    <mxGeometry x="49" y="160" width="60" height="30" as="geometry"/>
                </mxCell>
                <mxCell id="14" value="" style="endArrow=block;html=1;fontSize=16;strokeWidth=3;endFill=1;fillColor=#60a917;strokeColor=#2D7600;" parent="1" edge="1">
                    <mxGeometry width="50" height="50" relative="1" as="geometry">
                        <mxPoint x="439" y="137.2" as="sourcePoint"/>
                        <mxPoint x="599" y="137" as="targetPoint"/>
                    </mxGeometry>
                </mxCell>
                <mxCell id="22" value="" style="aspect=fixed;perimeter=ellipsePerimeter;html=1;align=center;shadow=0;dashed=0;spacingTop=3;image;image=img/lib/active_directory/generic_server.svg;glass=0;fontSize=16;imageBackground=none;" parent="1" vertex="1">
                    <mxGeometry x="649" y="210" width="39.2" height="70" as="geometry"/>
                </mxCell>
                <mxCell id="23" value="JP DNS Server" style="text;html=1;align=center;verticalAlign=middle;resizable=0;points=[];autosize=1;strokeColor=none;fillColor=none;glass=0;fontSize=16;fontColor=#000000;" parent="1" vertex="1">
                    <mxGeometry x="599" y="280" width="130" height="30" as="geometry"/>
                </mxCell>
                <mxCell id="28" value="" style="aspect=fixed;perimeter=ellipsePerimeter;html=1;align=center;shadow=0;dashed=0;spacingTop=3;image;image=img/lib/active_directory/generic_server.svg;glass=0;fontSize=16;" parent="1" vertex="1">
                    <mxGeometry x="649" y="330" width="39.2" height="70" as="geometry"/>
                </mxCell>
                <mxCell id="29" value="NAKASE DNS Server" style="text;html=1;align=center;verticalAlign=middle;resizable=0;points=[];autosize=1;strokeColor=none;fillColor=none;glass=0;fontSize=16;fontColor=#000000;" parent="1" vertex="1">
                    <mxGeometry x="574" y="400" width="180" height="30" as="geometry"/>
                </mxCell>
                <mxCell id="34" value="" style="endArrow=block;html=1;fontSize=16;strokeWidth=3;endFill=1;fillColor=#e51400;strokeColor=#B20000;rounded=0;" parent="1" edge="1">
                    <mxGeometry width="50" height="50" relative="1" as="geometry">
                        <mxPoint x="599" y="380" as="sourcePoint"/>
                        <mxPoint x="439" y="190" as="targetPoint"/>
                        <Array as="points">
                            <mxPoint x="479" y="380"/>
                            <mxPoint x="479" y="190"/>
                        </Array>
                    </mxGeometry>
                </mxCell>
                <mxCell id="37" value="1" style="text;html=1;align=center;verticalAlign=middle;resizable=0;points=[];autosize=1;strokeColor=none;fillColor=none;glass=0;fontSize=16;fontStyle=1;fontColor=#2D7600;" parent="1" vertex="1">
                    <mxGeometry x="744" y="130" width="30" height="30" as="geometry"/>
                </mxCell>
                <mxCell id="38" value="2" style="text;html=1;align=center;verticalAlign=middle;resizable=0;points=[];autosize=1;strokeColor=none;fillColor=none;glass=0;fontSize=16;fontStyle=1;fontColor=#2D7600;" parent="1" vertex="1">
                    <mxGeometry x="744" y="250" width="30" height="30" as="geometry"/>
                </mxCell>
                <mxCell id="40" value="3" style="text;html=1;align=center;verticalAlign=middle;resizable=0;points=[];autosize=1;strokeColor=none;fillColor=none;glass=0;fontSize=16;fontStyle=1;fontColor=#B20000;" parent="1" vertex="1">
                    <mxGeometry x="439" y="270" width="30" height="30" as="geometry"/>
                </mxCell>
                <mxCell id="41" value="" style="aspect=fixed;perimeter=ellipsePerimeter;html=1;align=center;shadow=0;dashed=0;spacingTop=3;image;image=img/lib/active_directory/generic_server.svg;glass=0;fontSize=16;" parent="1" vertex="1">
                    <mxGeometry x="344" y="90" width="39.2" height="70" as="geometry"/>
                </mxCell>
                <mxCell id="42" value="Cache DNS Server" style="text;html=1;align=center;verticalAlign=middle;resizable=0;points=[];autosize=1;strokeColor=none;fillColor=none;glass=0;fontSize=16;fontColor=#000000;" parent="1" vertex="1">
                    <mxGeometry x="279" y="160" width="160" height="30" as="geometry"/>
                </mxCell>
                <mxCell id="45" value="" style="endArrow=block;html=1;fontSize=16;strokeWidth=3;endFill=1;fillColor=#60a917;strokeColor=#2D7600;" parent="1" edge="1">
                    <mxGeometry width="50" height="50" relative="1" as="geometry">
                        <mxPoint x="119" y="137.20000000000005" as="sourcePoint"/>
                        <mxPoint x="279" y="137" as="targetPoint"/>
                    </mxGeometry>
                </mxCell>
                <mxCell id="46" value="nakko1130.jp" style="text;html=1;align=center;verticalAlign=middle;resizable=0;points=[];autosize=1;strokeColor=none;fillColor=none;glass=0;fontSize=16;fontStyle=1;fontColor=#000000;" parent="1" vertex="1">
                    <mxGeometry x="144" y="100" width="120" height="30" as="geometry"/>
                </mxCell>
                <mxCell id="50" value="nakko1130.jp" style="text;html=1;align=center;verticalAlign=middle;resizable=0;points=[];autosize=1;strokeColor=none;fillColor=none;glass=0;fontSize=16;fontColor=#000000;" parent="1" vertex="1">
                    <mxGeometry x="299" y="354" width="120" height="30" as="geometry"/>
                </mxCell>
                <mxCell id="51" value="" style="points=[];aspect=fixed;html=1;align=center;shadow=0;dashed=0;image;image=img/lib/allied_telesis/computer_and_terminals/Server_Desktop.svg;" parent="1" vertex="1">
                    <mxGeometry x="337.7000000000001" y="300" width="42.599999999999994" height="54" as="geometry"/>
                </mxCell>
                <mxCell id="54" value="29.133.63.2" style="text;html=1;align=center;verticalAlign=middle;resizable=0;points=[];autosize=1;strokeColor=none;fillColor=none;glass=0;fontSize=16;fontStyle=1;fontColor=#000000;" parent="1" vertex="1">
                    <mxGeometry x="149" y="150" width="110" height="30" as="geometry"/>
                </mxCell>
                <mxCell id="55" value="" style="endArrow=none;html=1;fontSize=16;strokeWidth=3;endFill=0;fillColor=#e51400;strokeColor=#B20000;startArrow=block;startFill=1;" parent="1" edge="1">
                    <mxGeometry width="50" height="50" relative="1" as="geometry">
                        <mxPoint x="119" y="187.20000000000005" as="sourcePoint"/>
                        <mxPoint x="279" y="187" as="targetPoint"/>
                    </mxGeometry>
                </mxCell>
                <mxCell id="57" value="" style="endArrow=block;html=1;fontSize=16;strokeWidth=3;endFill=1;fillColor=#60a917;strokeColor=#2D7600;rounded=0;" parent="1" edge="1">
                    <mxGeometry width="50" height="50" relative="1" as="geometry">
                        <mxPoint x="119" y="220.20000000000005" as="sourcePoint"/>
                        <mxPoint x="279" y="340" as="targetPoint"/>
                        <Array as="points">
                            <mxPoint x="129" y="220"/>
                            <mxPoint x="129" y="340"/>
                        </Array>
                    </mxGeometry>
                </mxCell>
                <mxCell id="58" value="29.133.63.2" style="text;html=1;align=center;verticalAlign=middle;resizable=0;points=[];autosize=1;strokeColor=none;fillColor=none;glass=0;fontSize=16;fontStyle=1;fontColor=#000000;" parent="1" vertex="1">
                    <mxGeometry x="149" y="300" width="110" height="30" as="geometry"/>
                </mxCell>
                <mxCell id="59" value="4" style="text;html=1;align=center;verticalAlign=middle;resizable=0;points=[];autosize=1;strokeColor=none;fillColor=none;glass=0;fontSize=16;fontStyle=1;fontColor=#2D7600;" parent="1" vertex="1">
                    <mxGeometry x="89" y="270" width="30" height="30" as="geometry"/>
                </mxCell>
            </root>
        </mxGraphModel>
    </diagram>
</mxfile>